<?xml version="1.0" standalone="no"?>
<!DOCTYPE svg PUBLIC "-//W3C//DTD SVG 20010904//EN"
 "http://www.w3.org/TR/2001/REC-SVG-20010904/DTD/svg10.dtd">
<svg version="1.0" xmlns="http://www.w3.org/2000/svg"
 width="200.000000pt" height="200.000000pt" viewBox="0 0 200.000000 200.000000"
 preserveAspectRatio="xMidYMid meet">
<metadata>
Created by potrace 1.14, written by Peter Selinger 2001-2017
</metadata>
<g transform="translate(0.000000,200.000000) scale(0.100000,-0.100000)"
fill="#000000" stroke="none">
<path d="M913 1993 c-23 -4 -72 -56 -74 -76 -2 -29 -8 -50 -17 -56 -6 -3 -40
-6 -77 -5 -80 1 -93 -12 -93 -94 1 -57 3 -53 -83 -114 -65 -46 -79 -69 -83
-136 -3 -52 -8 -65 -50 -118 l-46 -59 0 -521 c0 -481 1 -523 17 -542 54 -65
54 -63 35 -87 -10 -12 -17 -35 -16 -51 1 -16 3 -46 3 -66 2 -69 -5 -68 356
-68 278 0 324 2 329 15 8 21 84 21 93 0 9 -24 225 -20 248 4 19 22 18 135 -1
168 -12 18 -10 25 9 50 12 15 26 31 32 35 7 5 11 184 12 530 l3 523 -42 60
c-23 33 -45 62 -50 63 -4 2 -8 28 -8 57 0 30 -5 64 -11 77 -6 13 -44 46 -83
75 l-73 52 0 48 c1 90 -12 103 -98 101 -77 -1 -80 0 -82 32 -3 41 -31 80 -70
96 -33 14 -40 15 -80 7z m70 -65 c9 -7 18 -24 19 -38 3 -21 -2 -25 -32 -30
-54 -8 -80 -1 -80 23 0 46 55 73 93 45z"/>
<path d="M255 1792 c-5 -4 -18 -23 -27 -44 -9 -20 -29 -44 -43 -55 -68 -48
-68 -48 -56 -71 6 -12 17 -22 24 -22 20 0 61 -44 81 -87 12 -28 24 -40 35 -38
9 2 19 4 23 4 3 1 12 17 18 36 11 32 21 43 89 94 30 22 22 51 -22 71 -21 10
-41 33 -60 68 -27 50 -41 60 -62 44z"/>
<path d="M1710 518 c-6 -7 -19 -29 -28 -48 -9 -19 -36 -47 -59 -63 -24 -16
-43 -36 -43 -45 0 -9 18 -27 40 -40 27 -15 48 -38 65 -72 34 -67 56 -66 87 2
9 20 29 44 43 55 59 42 66 49 60 63 -3 9 -21 24 -39 34 -22 11 -43 36 -58 65
-31 62 -47 73 -68 49z"/>
</g>
</svg>
